<?xml version="1.0" encoding="UTF-8" standalone="no"?>
<svg width="23px" height="18px" viewBox="0 0 23 18" version="1.1" xmlns="http://www.w3.org/2000/svg" xmlns:xlink="http://www.w3.org/1999/xlink">
    <!-- Generator: Sketch 39.1 (31720) - http://www.bohemiancoding.com/sketch -->
    <title>email</title>
    <desc>Created with Sketch.</desc>
    <defs></defs>
    <g id="Page-1" stroke="none" stroke-width="1" fill="none" fill-rule="evenodd">
        <g id="iPad-Pro-Portrait" transform="translate(-313.000000, -664.000000)" fill="#2D3B4E">
            <g id="email" transform="translate(313.000000, 664.000000)">
                <path d="M0.847,17.076 C1.251,17.458 1.722,17.66 2.261,17.66 L20.711,17.66 C21.25,17.66 21.721,17.458 22.125,17.076 C22.507,16.672 22.709,16.201 22.709,15.662 L22.709,5.719 C22.349,6.123 21.923,6.482 21.452,6.796 C18.713,8.659 16.648,10.095 15.212,11.128 C14.741,11.487 14.359,11.756 14.067,11.958 C13.753,12.138 13.371,12.34 12.877,12.542 C12.384,12.744 11.935,12.856 11.508,12.856 L11.463,12.856 C11.037,12.856 10.588,12.744 10.094,12.542 C9.6,12.34 9.219,12.138 8.905,11.958 C8.613,11.756 8.231,11.487 7.76,11.128 C6.615,10.297 4.55,8.861 1.52,6.796 C1.049,6.482 0.622,6.123 0.263,5.719 L0.263,15.662 C0.263,16.201 0.465,16.672 0.847,17.076 L0.847,17.076 Z M0.959,4.013 C1.408,4.641 1.902,5.112 2.418,5.472 C2.71,5.674 3.562,6.257 4.977,7.245 C6.413,8.255 7.513,8.996 8.276,9.534 C8.343,9.602 8.523,9.736 8.792,9.916 C9.062,10.118 9.286,10.275 9.466,10.387 C9.645,10.522 9.87,10.657 10.117,10.814 C10.386,10.948 10.61,11.061 10.857,11.151 C11.082,11.218 11.284,11.263 11.463,11.263 L11.508,11.263 C11.688,11.263 11.89,11.218 12.114,11.151 C12.361,11.061 12.586,10.948 12.855,10.814 C13.102,10.657 13.326,10.522 13.506,10.387 C13.685,10.275 13.91,10.118 14.179,9.916 C14.449,9.736 14.628,9.602 14.696,9.534 C15.481,8.996 17.434,7.649 20.576,5.472 C21.182,5.045 21.676,4.529 22.103,3.923 C22.507,3.317 22.709,2.688 22.709,2.037 C22.709,1.476 22.507,1.005 22.103,0.623 C21.721,0.219 21.25,0.04 20.711,0.04 L2.261,0.04 C1.632,0.04 1.138,0.242 0.779,0.691 C0.443,1.117 0.263,1.656 0.263,2.307 C0.263,2.845 0.487,3.407 0.959,4.013 L0.959,4.013 Z" id="Fill-100"></path>
            </g>
        </g>
    </g>
</svg>