<?xml version="1.0" encoding="UTF-8" standalone="no"?>
<svg width="21px" height="20px" viewBox="0 0 21 20" version="1.1" xmlns="http://www.w3.org/2000/svg" xmlns:xlink="http://www.w3.org/1999/xlink">
    <!-- Generator: Sketch 39.1 (31720) - http://www.bohemiancoding.com/sketch -->
    <title>github</title>
    <desc>Created with Sketch.</desc>
    <defs></defs>
    <g id="Page-1" stroke="none" stroke-width="1" fill="none" fill-rule="evenodd">
        <g id="iPad-Pro-Portrait" transform="translate(-354.000000, -688.000000)" fill="#2D3B4E">
            <g id="github" transform="translate(354.000000, 688.000000)">
                <path d="M1.925,18.218 C2.643,18.913 3.473,19.273 4.483,19.273 L7.267,19.273 C7.469,19.273 7.603,19.273 7.693,19.25 C7.783,19.25 7.873,19.183 7.962,19.093 C8.052,19.003 8.097,18.846 8.097,18.667 L8.097,17.814 L8.097,16.534 L7.805,16.579 C7.626,16.602 7.379,16.624 7.11,16.624 C6.818,16.624 6.526,16.579 6.234,16.534 C5.942,16.489 5.651,16.355 5.404,16.175 C5.134,15.973 4.955,15.726 4.843,15.412 L4.73,15.12 C4.641,14.918 4.506,14.716 4.326,14.469 C4.147,14.245 3.967,14.088 3.788,13.998 L3.698,13.931 C3.631,13.886 3.586,13.841 3.541,13.773 C3.473,13.729 3.451,13.661 3.428,13.616 C3.406,13.549 3.406,13.504 3.473,13.459 C3.541,13.414 3.675,13.414 3.855,13.414 L4.102,13.437 C4.259,13.482 4.461,13.571 4.708,13.751 C4.955,13.908 5.157,14.133 5.314,14.402 C5.516,14.739 5.74,15.008 6.01,15.187 C6.279,15.367 6.571,15.457 6.84,15.457 C7.11,15.457 7.356,15.434 7.559,15.39 C7.76,15.367 7.94,15.3 8.12,15.21 C8.187,14.649 8.389,14.222 8.726,13.908 C8.254,13.863 7.828,13.796 7.446,13.684 C7.065,13.594 6.683,13.414 6.279,13.19 C5.875,12.965 5.538,12.696 5.269,12.359 C5,12.023 4.775,11.574 4.596,11.035 C4.439,10.496 4.349,9.868 4.349,9.15 C4.349,8.14 4.686,7.287 5.336,6.568 C5.022,5.805 5.045,4.952 5.426,4.01 C5.673,3.942 6.032,4.01 6.504,4.189 C6.975,4.369 7.334,4.526 7.536,4.66 C7.76,4.795 7.94,4.907 8.075,5.02 C8.86,4.795 9.668,4.683 10.476,4.683 C11.307,4.683 12.115,4.795 12.901,5.02 L13.372,4.705 C13.686,4.503 14.068,4.324 14.517,4.167 C14.966,3.987 15.302,3.942 15.527,4.01 C15.908,4.952 15.953,5.805 15.639,6.568 C16.29,7.287 16.627,8.14 16.627,9.15 C16.627,9.868 16.537,10.496 16.38,11.035 C16.2,11.596 15.976,12.023 15.706,12.359 C15.437,12.696 15.1,12.965 14.696,13.19 C14.292,13.414 13.888,13.594 13.507,13.684 C13.125,13.796 12.699,13.863 12.227,13.908 C12.654,14.29 12.878,14.873 12.878,15.704 L12.878,18.667 C12.878,18.824 12.901,18.936 12.946,19.026 C12.99,19.093 13.058,19.16 13.148,19.205 C13.237,19.228 13.305,19.25 13.394,19.25 C13.462,19.273 13.551,19.273 13.686,19.273 L16.492,19.273 C17.502,19.273 18.332,18.913 19.051,18.218 C19.746,17.499 20.106,16.669 20.106,15.659 L20.106,3.65 C20.106,2.64 19.746,1.81 19.051,1.092 C18.332,0.396 17.502,0.037 16.492,0.037 L4.483,0.037 C3.473,0.037 2.643,0.396 1.925,1.092 C1.229,1.81 0.87,2.64 0.87,3.65 L0.87,15.659 C0.87,16.669 1.229,17.499 1.925,18.218 L1.925,18.218 Z M4.349,13.886 C4.416,13.931 4.461,13.908 4.506,13.863 C4.528,13.796 4.506,13.751 4.416,13.706 C4.326,13.684 4.281,13.684 4.259,13.729 C4.237,13.796 4.259,13.841 4.349,13.886 L4.349,13.886 Z M4.686,14.245 C4.775,14.335 4.843,14.357 4.887,14.29 C4.955,14.245 4.955,14.177 4.865,14.088 C4.775,14.02 4.708,13.998 4.663,14.043 C4.618,14.088 4.618,14.155 4.686,14.245 L4.686,14.245 Z M5.269,14.851 C5.336,14.806 5.336,14.716 5.269,14.626 C5.202,14.514 5.134,14.492 5.067,14.537 C4.977,14.581 4.977,14.649 5.067,14.761 C5.134,14.873 5.202,14.918 5.269,14.851 L5.269,14.851 Z M5.538,15.345 C5.651,15.457 5.74,15.457 5.808,15.39 C5.853,15.322 5.853,15.232 5.74,15.143 C5.651,15.053 5.561,15.03 5.493,15.12 C5.426,15.187 5.449,15.255 5.538,15.345 L5.538,15.345 Z M6.279,15.771 C6.391,15.816 6.481,15.794 6.504,15.704 C6.526,15.614 6.481,15.547 6.346,15.502 C6.234,15.479 6.144,15.502 6.1,15.592 C6.077,15.681 6.122,15.749 6.279,15.771 L6.279,15.771 Z M7.11,15.906 C7.244,15.906 7.312,15.861 7.312,15.749 C7.312,15.659 7.222,15.614 7.087,15.636 C6.952,15.636 6.885,15.681 6.885,15.749 C6.885,15.861 6.952,15.906 7.11,15.906 L7.11,15.906 Z M8.03,15.636 C8.007,15.547 7.94,15.502 7.805,15.524 C7.671,15.547 7.603,15.614 7.626,15.704 C7.648,15.816 7.716,15.838 7.85,15.816 C7.985,15.771 8.052,15.726 8.03,15.636 L8.03,15.636 Z" id="Fill-195"></path>
            </g>
        </g>
    </g>
</svg>