<?xml version="1.0" encoding="UTF-8" standalone="no"?>
<svg width="20px" height="20px" viewBox="0 0 20 20" version="1.1" xmlns="http://www.w3.org/2000/svg" xmlns:xlink="http://www.w3.org/1999/xlink">
    <!-- Generator: Sketch 39.1 (31720) - http://www.bohemiancoding.com/sketch -->
    <title>linkedin</title>
    <desc>Created with Sketch.</desc>
    <defs></defs>
    <g id="Page-1" stroke="none" stroke-width="1" fill="none" fill-rule="evenodd">
        <g id="iPad-Pro-Portrait" transform="translate(-285.000000, -664.000000)" fill="#2D3B4E">
            <g id="linkedin" transform="translate(285.000000, 664.000000)">
                <path d="M1.055,18.159 C1.773,18.854 2.604,19.214 3.614,19.214 L15.622,19.214 C16.632,19.214 17.463,18.854 18.181,18.159 C18.877,17.463 19.236,16.61 19.236,15.6 L19.236,3.591 C19.236,2.604 18.877,1.751 18.181,1.055 C17.463,0.359 16.632,0 15.622,0 L3.614,0 C2.604,0 1.773,0.359 1.055,1.055 C0.359,1.751 0,2.604 0,3.591 L0,15.6 C0,16.61 0.359,17.463 1.055,18.159 L1.055,18.159 Z M3.232,3.659 C3.546,3.367 3.95,3.232 4.422,3.232 C4.916,3.232 5.297,3.367 5.589,3.659 C5.881,3.951 6.038,4.31 6.038,4.736 C6.038,5.163 5.903,5.522 5.589,5.814 C5.297,6.105 4.893,6.24 4.399,6.24 C3.905,6.24 3.524,6.105 3.232,5.814 C2.94,5.522 2.783,5.163 2.783,4.736 C2.783,4.31 2.94,3.951 3.232,3.659 L3.232,3.659 Z M2.963,7.407 L5.858,7.407 L5.858,16.071 L2.963,16.071 L2.963,7.407 Z M7.452,7.407 L10.347,7.407 L10.347,8.664 L10.325,8.664 C10.931,7.699 11.806,7.205 12.929,7.205 C13.939,7.205 14.747,7.542 15.353,8.193 C15.959,8.844 16.273,9.809 16.273,11.111 L16.273,16.071 L13.378,16.071 L13.378,11.425 C13.378,10.123 12.884,9.472 11.919,9.472 C11.56,9.472 11.245,9.584 10.998,9.786 C10.751,9.988 10.549,10.235 10.437,10.527 C10.37,10.662 10.347,10.909 10.347,11.223 L10.347,16.071 L7.452,16.071 C7.474,10.841 7.474,7.946 7.452,7.407 L7.452,7.407 Z" id="Fill-66"></path>
            </g>
        </g>
    </g>
</svg>