<?xml version="1.0" encoding="UTF-8" standalone="no"?>
<svg width="252px" height="251px" viewBox="0 0 252 251" version="1.1" xmlns="http://www.w3.org/2000/svg" xmlns:xlink="http://www.w3.org/1999/xlink">
    <!-- Generator: Sketch 39.1 (31720) - http://www.bohemiancoding.com/sketch -->
    <title>M</title>
    <desc>Created with Sketch.</desc>
    <defs>
        <linearGradient x1="50%" y1="0%" x2="50%" y2="100%" id="linearGradient-1">
            <stop stop-color="#FBDA61" offset="0%"></stop>
            <stop stop-color="#F76B1C" offset="100%"></stop>
        </linearGradient>
        <linearGradient x1="50%" y1="0%" x2="50%" y2="100%" id="linearGradient-2">
            <stop stop-color="#78BCA5" offset="0%"></stop>
            <stop stop-color="#429422" offset="100%"></stop>
        </linearGradient>
    </defs>
    <g id="Page-1" stroke="none" stroke-width="1" fill="none" fill-rule="evenodd">
        <g id="iPad-Pro-Portrait" transform="translate(-47.000000, -27.000000)">
            <g id="M" transform="translate(47.000000, 27.000000)">
                <path d="M91.1554656,159.701101 L251.869893,0 L251.869893,250.281818 L2.55795385e-13,250.281818 L32.7430861,217.745182 L32.7430861,250.281818 L127.194296,250.281818 L221.645506,250.281818 L221.645506,92.6042727 L127.194296,201.097997 L91.1554656,159.701101 Z" id="Combined-Shape" fill="url(#linearGradient-1)"></path>
                <path d="M158.271917,165.399917 C150.749575,157.635358 125.816477,125.023187 125.816477,125.023187 L0,0 L0,250.281818 L151.713563,250.281818 L127.194296,250.281818 L32.7430861,250.281818 L32.7430861,92.6042727 L127.194296,201.097997 L158.271917,165.399917 Z" id="Combined-Shape" fill="url(#linearGradient-2)"></path>
            </g>
        </g>
    </g>
</svg>