<?xml version="1.0" encoding="UTF-8" standalone="no"?>
<svg width="150px" height="92px" viewBox="0 0 150 92" version="1.1" xmlns="http://www.w3.org/2000/svg" xmlns:xlink="http://www.w3.org/1999/xlink">
    <!-- Generator: Sketch 39.1 (31720) - http://www.bohemiancoding.com/sketch -->
    <title>Final Iteration</title>
    <desc>Created with Sketch.</desc>
    <defs></defs>
    <g id="Page-1" stroke="none" stroke-width="1" fill="none" fill-rule="evenodd">
        <g id="iPad-Pro-Portrait" transform="translate(-806.000000, -455.000000)" fill="#2D3B4E">
            <g id="Final-Iteration" transform="translate(801.000000, 356.000000)">
                <text id="A" font-family="STBaoli-SC-Regular, Baoli SC" font-size="180" font-weight="normal">
                    <tspan x="0" y="191">A</tspan>
                </text>
                <path d="M154.115354,99.5 L102.600174,99.5 C102.477193,100.493801 102.139614,102.477203 101.697219,104.753129 C101.316622,106.711131 100.945201,108.439329 100.684415,109.5 L152.145407,109.5 C152.289718,108.421499 152.590581,106.654203 152.97735,104.664445 C153.413602,102.420126 153.845167,100.479164 154.115354,99.5 Z" id="Combined-Shape"></path>
                <path d="M129.783482,126.018773 L129.783482,126 L129.758221,126 C129.738191,126.140078 129.714017,126.299822 129.686023,126.477282 L129.783482,126.018773 Z M129.609669,126 L97.3781789,126 C97.2292531,126.991222 96.8750116,128.967263 96.4336662,131.237788 C96.0519919,133.201332 95.6924206,134.936273 95.4513194,136 L127.648688,136 C127.81697,134.925121 128.132439,133.16572 128.517976,131.182301 C128.955479,128.931544 129.368577,126.982059 129.609669,126 Z M95.3717716,135.339666 L95.3717716,135.518254 C95.422265,135.220156 95.4803433,134.88699 95.5449495,134.524929 L95.3717716,135.339666 Z" id="Combined-Shape-Copy-3"></path>
            </g>
        </g>
    </g>
</svg>