<?xml version="1.0" encoding="UTF-8" standalone="no"?>
<svg width="21px" height="23px" viewBox="0 0 21 23" version="1.1" xmlns="http://www.w3.org/2000/svg" xmlns:xlink="http://www.w3.org/1999/xlink">
    <!-- Generator: Sketch 39.1 (31720) - http://www.bohemiancoding.com/sketch -->
    <title>resume</title>
    <desc>Created with Sketch.</desc>
    <defs></defs>
    <g id="Page-1" stroke="none" stroke-width="1" fill="none" fill-rule="evenodd">
        <g id="iPad-Pro-Portrait" transform="translate(-353.000000, -635.000000)" fill="#2D3B4E">
            <g id="resume" transform="translate(353.000000, 635.000000)">
                <path d="M1.227,22.381 C1.452,22.628 1.744,22.74 2.08,22.74 L18.892,22.74 C19.229,22.74 19.521,22.628 19.745,22.381 C19.992,22.156 20.104,21.864 20.104,21.528 L20.104,8.307 L13.303,8.307 C12.967,8.307 12.675,8.195 12.45,7.948 C12.203,7.724 12.091,7.432 12.091,7.095 L12.091,0.294 L2.08,0.294 C1.744,0.294 1.452,0.406 1.227,0.653 C0.981,0.878 0.868,1.169 0.868,1.506 L0.868,21.528 C0.868,21.864 0.981,22.156 1.227,22.381 L1.227,22.381 Z M5.672,16.724 C5.672,16.612 5.717,16.5 5.784,16.432 C5.851,16.365 5.964,16.32 6.076,16.32 L14.897,16.32 C15.009,16.32 15.121,16.365 15.189,16.432 C15.256,16.5 15.301,16.612 15.301,16.724 L15.301,17.532 C15.301,17.645 15.256,17.757 15.189,17.824 C15.121,17.891 15.009,17.936 14.897,17.936 L6.076,17.936 C5.964,17.936 5.851,17.891 5.784,17.824 C5.717,17.757 5.672,17.645 5.672,17.532 L5.672,16.724 L5.672,16.724 Z M5.672,13.515 C5.672,13.402 5.717,13.29 5.784,13.223 C5.851,13.155 5.964,13.111 6.076,13.111 L14.897,13.111 C15.009,13.111 15.121,13.155 15.189,13.223 C15.256,13.29 15.301,13.402 15.301,13.515 L15.301,14.323 C15.301,14.435 15.256,14.547 15.189,14.614 C15.121,14.682 15.009,14.727 14.897,14.727 L6.076,14.727 C5.964,14.727 5.851,14.682 5.784,14.614 C5.717,14.547 5.672,14.435 5.672,14.323 L5.672,13.515 L5.672,13.515 Z M5.672,10.305 C5.672,10.193 5.717,10.08 5.784,10.013 C5.851,9.946 5.964,9.901 6.076,9.901 L14.897,9.901 C15.009,9.901 15.121,9.946 15.189,10.013 C15.256,10.08 15.301,10.193 15.301,10.305 L15.301,11.113 C15.301,11.225 15.256,11.337 15.189,11.405 C15.121,11.472 15.009,11.517 14.897,11.517 L6.076,11.517 C5.964,11.517 5.851,11.472 5.784,11.405 C5.717,11.337 5.672,11.225 5.672,11.113 L5.672,10.305 L5.672,10.305 Z M19.61,6.714 C19.476,6.511 19.364,6.377 19.251,6.242 L14.156,1.147 C14.021,1.035 13.887,0.9 13.707,0.788 L13.707,6.714 L19.61,6.714 L19.61,6.714 Z" id="Fill-19"></path>
            </g>
        </g>
    </g>
</svg>